<svg xmlns="http://www.w3.org/2000/svg" viewBox="0 0 80 120" fill="none">
  <path d="M40 8 C20 28, 8 60, 12 96 C16 60, 28 36, 40 20 C52 36, 64 60, 68 96 C72 60, 60 28, 40 8Z" stroke="#A90A7C" stroke-width="1.5" stroke-linecap="round" stroke-linejoin="round"/>
  <path d="M40 20 L40 96" stroke="#A90A7C" stroke-width="1.5" stroke-linecap="round"/>
  <path d="M40 40 C32 48, 24 58, 20 72" stroke="#A90A7C" stroke-width="1" stroke-linecap="round" opacity="0.6"/>
  <path d="M40 40 C48 48, 56 58, 60 72" stroke="#A90A7C" stroke-width="1" stroke-linecap="round" opacity="0.6"/>
  <path d="M40 56 C34 62, 28 70, 26 80" stroke="#A90A7C" stroke-width="1" stroke-linecap="round" opacity="0.4"/>
  <path d="M40 56 C46 62, 52 70, 54 80" stroke="#A90A7C" stroke-width="1" stroke-linecap="round" opacity="0.4"/>
</svg>
